<svg width="96" height="96" viewBox="0 0 96 96" fill="none" xmlns="http://www.w3.org/2000/svg" role="img" aria-label="Preach Flow mark">
  <rect x="8" y="8" width="80" height="80" rx="20" fill="#101817"/>
  <path d="M25 30.5C34.2 28 42.2 30.4 48 35.3C53.8 30.4 61.8 28 71 30.5V62.5C61.8 60 53.8 62.4 48 67.3C42.2 62.4 34.2 60 25 62.5V30.5Z" fill="#F7F2EA"/>
  <path d="M48 35.3V67.3" stroke="#101817" stroke-width="3" stroke-linecap="round"/>
  <path d="M32 40.5C36.5 40.1 40.2 41 43.3 43.1" stroke="#101817" stroke-width="2.6" stroke-linecap="round"/>
  <path d="M63.8 40.5C59.3 40.1 55.7 41 52.7 43.1" stroke="#101817" stroke-width="2.6" stroke-linecap="round"/>
  <path d="M32 49.5C36.4 49.1 40.2 50 43.3 52.1" stroke="#C98B46" stroke-width="2.6" stroke-linecap="round"/>
  <path d="M63.8 49.5C59.4 49.1 55.7 50 52.7 52.1" stroke="#C98B46" stroke-width="2.6" stroke-linecap="round"/>
  <path d="M48 20V12" stroke="#C98B46" stroke-width="4" stroke-linecap="round"/>
  <path d="M64.5 25.4L70 19.9" stroke="#C98B46" stroke-width="4" stroke-linecap="round"/>
  <path d="M31.5 25.4L26 19.9" stroke="#C98B46" stroke-width="4" stroke-linecap="round"/>
</svg>
