<svg width="128" height="128" viewBox="0 0 128 128" fill="none" xmlns="http://www.w3.org/2000/svg" role="img" aria-label="Preach Flow mark">
  <defs>
    <linearGradient id="pf-bg" x1="14" y1="14" x2="114" y2="114" gradientUnits="userSpaceOnUse">
      <stop stop-color="#FF7A18"/>
      <stop offset="0.45" stop-color="#FF2E88"/>
      <stop offset="1" stop-color="#6C2BFF"/>
    </linearGradient>
    <linearGradient id="pf-glow" x1="28" y1="20" x2="96" y2="112" gradientUnits="userSpaceOnUse">
      <stop stop-color="#FFF0C8"/>
      <stop offset="1" stop-color="#FFFFFF" stop-opacity="0.58"/>
    </linearGradient>
    <filter id="pf-shadow" x="2" y="4" width="124" height="124" filterUnits="userSpaceOnUse" color-interpolation-filters="sRGB">
      <feDropShadow dx="0" dy="12" stdDeviation="12" flood-color="#201047" flood-opacity="0.25"/>
    </filter>
  </defs>
  <g filter="url(#pf-shadow)">
    <path d="M22 14h84c4.4 0 8 3.6 8 8v84c0 4.4-3.6 8-8 8H22c-4.4 0-8-3.6-8-8V22c0-4.4 3.6-8 8-8Z" fill="url(#pf-bg)"/>
    <path d="M26 100V29h36.4c17.4 0 29.1 10.1 29.1 25.3 0 15.4-11.7 25.7-29.1 25.7H44.5v20H26Zm18.5-36.3h17.1c7.5 0 11.9-3.4 11.9-9.4 0-5.8-4.4-9.2-11.9-9.2H44.5v18.6Z" fill="#11101B"/>
    <path d="M48 100V76.6h39.7V61.2H48V45h54v15.7L82.6 80H102v20H48Z" fill="#11101B" fill-opacity="0.9"/>
    <path d="M35 29h56.5c7.6 0 13.5 5.9 13.5 13.5 0 7.6-5.9 13.5-13.5 13.5H71.3" stroke="url(#pf-glow)" stroke-width="5" stroke-linecap="round"/>
    <path d="M34 29v70" stroke="white" stroke-opacity="0.9" stroke-width="5" stroke-linecap="round"/>
    <path d="M47 78h37" stroke="white" stroke-opacity="0.78" stroke-width="5" stroke-linecap="round"/>
  </g>
</svg>
