<svg width="128" height="128" viewBox="0 0 128 128" fill="none" xmlns="http://www.w3.org/2000/svg" role="img" aria-label="Preach Flow logo">
  <rect x="8" y="8" width="112" height="112" rx="26" fill="#20242A"/>
  <path d="M32 78c12-6 23-6 32 0 9-6 20-6 32 0v23c-12-6-23-6-32 0-9-6-20-6-32 0V78Z" fill="#F4FBFE"/>
  <path d="M64 78v23" stroke="#20242A" stroke-width="4" stroke-linecap="round"/>
  <path d="M40 85c7-2.7 13.5-2.7 19.5 0M40 93c7-2.7 13.5-2.7 19.5 0M68.5 85c6-2.7 12.5-2.7 19.5 0M68.5 93c6-2.7 12.5-2.7 19.5 0" stroke="#20242A" stroke-width="3" stroke-linecap="round"/>
  <rect x="50" y="28" width="28" height="44" rx="14" fill="#FF953E"/>
  <path d="M57 40h14M57 49h14M57 58h14" stroke="#20242A" stroke-width="4" stroke-linecap="round"/>
  <path d="M43 55c0 12 9.4 22 21 22s21-10 21-22" stroke="#F4FBFE" stroke-width="6" stroke-linecap="round"/>
  <path d="M64 77v13" stroke="#F4FBFE" stroke-width="6" stroke-linecap="round"/>
  <path d="M33 47c-5 5-8 11-8 18M95 47c5 5 8 11 8 18" stroke="#FF953E" stroke-width="6" stroke-linecap="round"/>
  <path d="M41 54c-3 3-5 7-5 11M87 54c3 3 5 7 5 11" stroke="#FFB76B" stroke-width="5" stroke-linecap="round"/>
</svg>
