<svg width="128" height="128" viewBox="0 0 128 128" fill="none" xmlns="http://www.w3.org/2000/svg" role="img" aria-label="Preach Flow logo">
  <rect x="8" y="8" width="112" height="112" rx="26" fill="#20242A"/>
  <path d="M31 75c13-6 24-6 33 0 9-6 20-6 33 0v24c-13-6-24-6-33 0-9-6-20-6-33 0V75Z" fill="#F4FBFE"/>
  <path d="M64 75v24" stroke="#20242A" stroke-width="4" stroke-linecap="round"/>
  <path d="M38 82c8-3 15-3 21 0M38 90c8-3 15-3 21 0M69 82c6-3 13-3 21 0M69 90c6-3 13-3 21 0" stroke="#20242A" stroke-width="3" stroke-linecap="round"/>
  <path d="M64 30c9 0 16 7 16 16v13c0 9-7 16-16 16s-16-7-16-16V46c0-9 7-16 16-16Z" fill="#FF953E"/>
  <path d="M56 45h16M56 53h16M56 61h16" stroke="#20242A" stroke-width="4" stroke-linecap="round"/>
  <path d="M42 57c0 12 10 22 22 22s22-10 22-22" stroke="#F4FBFE" stroke-width="6" stroke-linecap="round"/>
  <path d="M64 79v14" stroke="#F4FBFE" stroke-width="6" stroke-linecap="round"/>
  <path d="M30 55c8-15 21-25 38-29" stroke="#FF953E" stroke-width="7" stroke-linecap="round"/>
</svg>
